<svg xmlns="http://www.w3.org/2000/svg" xmlns:xlink="http://www.w3.org/1999/xlink" contentStyleType="text/css" data-diagram-type="ACTIVITY" height="1001px" preserveAspectRatio="none" style="width:756px;height:1001px;background:#FFFFFF;" version="1.1" viewBox="0 0 756 1001" width="756px" zoomAndPan="magnify"><?plantuml 1.2026.3?><defs/><g><g class="title" data-source-line="12"><text fill="#000000" font-family="'Noto Sans CJK JP'" font-size="14" font-weight="700" lengthAdjust="spacing" textLength="252.9649" x="250.8578" y="36.2399">&#26082;&#23384;&#12510;&#12471;&#12531;&#12434; Nix &#32076;&#36335;&#12408;&#20999;&#12426;&#26367;&#12360;&#12427;&#25163;&#38918;</text></g><ellipse cx="115.2206" cy="66.2719" fill="#222222" rx="10" ry="10" style="stroke:#222222;stroke-width:1;"/><path d="M209.5411,100.548 L209.5411,110.96 L189.5411,114.96 L209.5411,118.96 L209.5411,129.372 A0,0 0 0 0 209.5411,129.372 L615.7832,129.372 A0,0 0 0 0 615.7832,129.372 L615.7832,110.548 L605.7832,100.548 L209.5411,100.548 A0,0 0 0 0 209.5411,100.548" fill="#FEFFDD" style="stroke:#181818;stroke-width:0.5;"/><path d="M605.7832,100.548 L605.7832,110.548 L615.7832,110.548 L605.7832,100.548" fill="#FEFFDD" style="stroke:#181818;stroke-width:0.5;"/><text fill="#000000" font-family="'Noto Sans CJK JP'" font-size="13" lengthAdjust="spacing" textLength="385.2421" x="215.5411" y="120.628">curl -fsSL https://install.determinate.systems/nix | sh -s -- install</text><rect fill="#F7F7F7" height="37.3761" rx="12.5" ry="12.5" style="stroke:#555555;stroke-width:0.5;" width="148.641" x="40.9002" y="96.2719"/><text fill="#000000" font-family="'Noto Sans CJK JP'" font-size="12" lengthAdjust="spacing" textLength="128.641" x="50.9002" y="120.192">Nix &#12434;&#12452;&#12531;&#12473;&#12488;&#12540;&#12523;&#12377;&#12427;</text><path d="M229.2213,143.648 L229.2213,172.8841 L209.2213,176.8841 L229.2213,180.8841 L229.2213,210.1201 A0,0 0 0 0 229.2213,210.1201 L735.6805,210.1201 A0,0 0 0 0 735.6805,210.1201 L735.6805,153.648 L725.6805,143.648 L229.2213,143.648 A0,0 0 0 0 229.2213,143.648" fill="#E0FFE0" style="stroke:#181818;stroke-width:0.5;"/><path d="M725.6805,143.648 L725.6805,153.648 L735.6805,153.648 L725.6805,143.648" fill="#E0FFE0" style="stroke:#181818;stroke-width:0.5;"/><text fill="#000000" font-family="'Noto Sans CJK JP'" font-size="13" lengthAdjust="spacing" textLength="485.4592" x="235.2213" y="163.728">nix build '.#homeConfigurations."pollenjp@wsl".activationPackage' -o /tmp/hm</text><text fill="#000000" font-family="'Noto Sans CJK JP'" font-size="13" lengthAdjust="spacing" textLength="151.2161" x="235.2213" y="182.5521">find /tmp/hm/home-files</text><text fill="#000000" font-family="'Noto Sans CJK JP'" font-size="13" lengthAdjust="spacing" textLength="362.3623" x="235.2213" y="201.3761">&#8594; $HOME &#12395;&#19968;&#20999;&#35302;&#12428;&#12378;&#12395;&#12300;&#37197;&#32622;&#12373;&#12428;&#12427;&#20840;&#12501;&#12449;&#12452;&#12523;&#12301;&#12364;&#35501;&#12417;&#12427;</text><rect fill="#F7F7F7" height="37.3761" rx="12.5" ry="12.5" style="stroke:#555555;stroke-width:0.5;" width="188.0013" x="21.22" y="158.196"/><text fill="#000000" font-family="'Noto Sans CJK JP'" font-size="12" font-weight="700" lengthAdjust="spacing" textLength="168.0013" x="31.22" y="182.1161">&#20309;&#12364;&#37197;&#32622;&#12373;&#12428;&#12427;&#12363;&#20808;&#12395;&#30906;&#35469;&#12377;&#12427;</text><path d="M222.3572,283.6361 L222.3572,303.4601 L202.3572,307.4601 L222.3572,311.4601 L222.3572,331.2842 A0,0 0 0 0 222.3572,331.2842 L540.9405,331.2842 A0,0 0 0 0 540.9405,331.2842 L540.9405,293.6361 L530.9405,283.6361 L222.3572,283.6361 A0,0 0 0 0 222.3572,283.6361" fill="#FFF8DC" style="stroke:#181818;stroke-width:0.5;"/><path d="M530.9405,283.6361 L530.9405,293.6361 L540.9405,293.6361 L530.9405,283.6361" fill="#FFF8DC" style="stroke:#181818;stroke-width:0.5;"/><text fill="#000000" font-family="'Noto Sans CJK JP'" font-size="13" lengthAdjust="spacing" textLength="65.0001" x="228.3572" y="303.7161">&#22806;&#12373;&#12394;&#12356;&#12392;</text><text fill="#000000" font-family="'Noto Sans CJK JP'" font-size="13" lengthAdjust="spacing" textLength="297.5833" x="228.3572" y="322.5402">&#12300;Existing file ... would be clobbered&#12301;&#12391;&#20013;&#26029;&#12377;&#12427;</text><rect fill="#F7F7F7" height="54.7522" rx="12.5" ry="12.5" style="stroke:#555555;stroke-width:0.5;" width="174.2731" x="28.0841" y="280.084"/><text fill="#000000" font-family="'Noto Sans CJK JP'" font-size="12" lengthAdjust="spacing" textLength="154.2731" x="38.0841" y="304.0041">preflight-unlink.sh &#12434;&#23455;&#34892;&#12375;</text><text fill="#000000" font-family="'Noto Sans CJK JP'" font-size="12" lengthAdjust="spacing" textLength="121.0089" x="38.0841" y="321.3802">&#26082;&#23384;&#12398; symlink &#12434;&#22806;&#12377;</text><polygon fill="#FFF8DC" points="41.2132,230.1201,189.2281,230.1201,201.2281,242.1201,189.2281,254.1201,41.2132,254.1201,29.2132,242.1201,41.2132,230.1201" style="stroke:#AAAAAA;stroke-width:0.5;"/><text fill="#000000" font-family="'Noto Sans CJK JP'" font-size="11" lengthAdjust="spacing" textLength="21.9998" x="119.2206" y="266.88">&#12399;&#12356;</text><text fill="#000000" font-family="'Noto Sans CJK JP'" font-size="11" lengthAdjust="spacing" textLength="148.0149" x="41.2132" y="246.916">main.bash setup &#12434;&#23455;&#34892;&#28168;&#12415;?</text><text fill="#000000" font-family="'Noto Sans CJK JP'" font-size="11" lengthAdjust="spacing" textLength="32.9998" x="201.2281" y="238.9521">&#12356;&#12356;&#12360;</text><polygon fill="#FFF8DC" points="115.2206,354.8363,127.2206,366.8363,115.2206,378.8363,103.2206,366.8363,115.2206,354.8363" style="stroke:#AAAAAA;stroke-width:0.5;"/><rect fill="#F7F7F7" height="37.3761" rx="12.5" ry="12.5" style="stroke:#555555;stroke-width:0.5;" width="198.4413" x="16" y="398.8363"/><text fill="#000000" font-family="'Noto Sans CJK JP'" font-size="12" lengthAdjust="spacing" textLength="178.4413" x="26" y="422.7564">home-manager switch --dry-run</text><path d="M226.9232,446.2124 L226.9232,475.4484 L206.9232,479.4484 L226.9232,483.4484 L226.9232,512.6844 A0,0 0 0 0 226.9232,512.6844 L489.7885,512.6844 A0,0 0 0 0 489.7885,512.6844 L489.7885,456.2124 L479.7885,446.2124 L226.9232,446.2124 A0,0 0 0 0 226.9232,446.2124" fill="#FFF8DC" style="stroke:#181818;stroke-width:0.5;"/><path d="M479.7885,446.2124 L479.7885,456.2124 L489.7885,456.2124 L479.7885,446.2124" fill="#FFF8DC" style="stroke:#181818;stroke-width:0.5;"/><text fill="#000000" font-family="'Noto Sans CJK JP'" font-size="13" lengthAdjust="spacing" textLength="241.8653" x="232.9232" y="466.2924">-b bak &#12399;&#26082;&#23384;&#12501;&#12449;&#12452;&#12523;&#12434; .bak &#12408;&#36864;&#36991;&#12377;&#12427;</text><text fill="#000000" font-family="'Noto Sans CJK JP'" font-size="13" font-weight="700" lengthAdjust="spacing" textLength="161.0832" x="232.9232" y="485.1164">.bak &#12364;&#26082;&#12395;&#22312;&#12427;&#12392;&#22833;&#25943;&#12377;&#12427;</text><text fill="#000000" font-family="'Noto Sans CJK JP'" font-size="13" lengthAdjust="spacing" textLength="26" x="394.0064" y="485.1164">&#12398;&#12391;</text><text fill="#000000" font-family="'Noto Sans CJK JP'" font-size="13" lengthAdjust="spacing" textLength="200.9672" x="232.9232" y="503.9404">&#12522;&#12488;&#12521;&#12452;&#26178;&#12399;&#21476;&#12356; .bak &#12434;&#20808;&#12395;&#28040;&#12377;</text><rect fill="#F7F7F7" height="37.3761" rx="12.5" ry="12.5" style="stroke:#555555;stroke-width:0.5;" width="183.4051" x="23.5181" y="460.7604"/><text fill="#000000" font-family="'Noto Sans CJK JP'" font-size="12" lengthAdjust="spacing" textLength="163.4051" x="33.5181" y="484.6804">home-manager switch -b bak</text><rect fill="#F7F7F7" height="54.7522" rx="12.5" ry="12.5" style="stroke:#555555;stroke-width:0.5;" width="190.7012" x="19.87" y="582.6484"/><text fill="#000000" font-family="'Noto Sans CJK JP'" font-size="12" lengthAdjust="spacing" textLength="170.7012" x="29.87" y="606.5685">home-manager generations &#12391;</text><text fill="#000000" font-family="'Noto Sans CJK JP'" font-size="12" lengthAdjust="spacing" textLength="146.2571" x="29.87" y="623.9446">&#21476;&#12356;&#19990;&#20195;&#12398; activate &#12434;&#23455;&#34892;</text><path d="M214.2811,707.3646 L214.2811,727.1886 L194.2811,731.1886 L214.2811,735.1886 L214.2811,755.0126 A0,0 0 0 0 214.2811,755.0126 L505.3694,755.0126 A0,0 0 0 0 505.3694,755.0126 L505.3694,717.3646 L495.3694,707.3646 L214.2811,707.3646 A0,0 0 0 0 214.2811,707.3646" fill="#FFF8DC" style="stroke:#181818;stroke-width:0.5;"/><path d="M495.3694,707.3646 L495.3694,717.3646 L505.3694,717.3646 L495.3694,707.3646" fill="#FFF8DC" style="stroke:#181818;stroke-width:0.5;"/><text fill="#000000" font-family="'Noto Sans CJK JP'" font-size="13" lengthAdjust="spacing" textLength="270.0883" x="220.2811" y="727.4446">&#26368;&#32066;&#25163;&#27573;&#12384;&#12387;&#12383; ./main.bash setup (&#26087;&#32076;&#36335;) &#12399;</text><text fill="#000000" font-family="'Noto Sans CJK JP'" font-size="13" lengthAdjust="spacing" textLength="173.9012" x="220.2811" y="746.2686">ADR 013 (Stage 6) &#12391;&#21066;&#38500;&#12375;&#12383;</text><rect fill="#F7F7F7" height="37.3761" rx="12.5" ry="12.5" style="stroke:#555555;stroke-width:0.5;" width="158.121" x="36.1602" y="712.5005"/><text fill="#000000" font-family="'Noto Sans CJK JP'" font-size="12" lengthAdjust="spacing" textLength="138.121" x="46.1602" y="736.4206">home-manager uninstall</text><ellipse cx="115.2206" cy="787.6886" fill="none" rx="11" ry="11" style="stroke:#222222;stroke-width:1;"/><ellipse cx="115.2206" cy="787.6886" fill="#222222" rx="6" ry="6" style="stroke:#222222;stroke-width:1;"/><polygon fill="#FFF8DC" points="79.6139,657.4006,150.8274,657.4006,162.8274,669.4006,150.8274,681.4006,79.6139,681.4006,67.6139,669.4006,79.6139,657.4006" style="stroke:#AAAAAA;stroke-width:0.5;"/><text fill="#000000" font-family="'Noto Sans CJK JP'" font-size="11" lengthAdjust="spacing" textLength="21.9998" x="119.2206" y="694.1605">&#12399;&#12356;</text><text fill="#000000" font-family="'Noto Sans CJK JP'" font-size="11" lengthAdjust="spacing" textLength="71.2135" x="79.6139" y="674.1966">&#12381;&#12428;&#12391;&#12418;&#39364;&#30446;?</text><text fill="#000000" font-family="'Noto Sans CJK JP'" font-size="11" lengthAdjust="spacing" textLength="32.9998" x="162.8274" y="666.2326">&#12356;&#12356;&#12360;</text><polygon fill="#FFF8DC" points="79.6139,532.6844,150.8274,532.6844,162.8274,544.6844,150.8274,556.6844,79.6139,556.6844,67.6139,544.6844,79.6139,532.6844" style="stroke:#AAAAAA;stroke-width:0.5;"/><text fill="#000000" font-family="'Noto Sans CJK JP'" font-size="11" lengthAdjust="spacing" textLength="21.9998" x="119.2206" y="569.4443">&#12399;&#12356;</text><text fill="#000000" font-family="'Noto Sans CJK JP'" font-size="11" lengthAdjust="spacing" textLength="71.2135" x="79.6139" y="549.4804">&#21839;&#38988;&#12364;&#36215;&#12365;&#12383;?</text><text fill="#000000" font-family="'Noto Sans CJK JP'" font-size="11" lengthAdjust="spacing" textLength="32.9998" x="162.8274" y="541.5165">&#12356;&#12356;&#12360;</text><polygon fill="#FFF8DC" points="115.2206,840.6886,127.2206,852.6886,115.2206,864.6886,103.2206,852.6886,115.2206,840.6886" style="stroke:#AAAAAA;stroke-width:0.5;"/><path d="M216.3092,888.2407 L216.3092,908.0647 L196.3092,912.0647 L216.3092,916.0647 L216.3092,935.8887 A0,0 0 0 0 216.3092,935.8887 L470.0094,935.8887 A0,0 0 0 0 470.0094,935.8887 L470.0094,898.2407 L460.0094,888.2407 L216.3092,888.2407 A0,0 0 0 0 216.3092,888.2407" fill="#FFF8DC" style="stroke:#181818;stroke-width:0.5;"/><path d="M460.0094,888.2407 L460.0094,898.2407 L470.0094,898.2407 L460.0094,888.2407" fill="#FFF8DC" style="stroke:#181818;stroke-width:0.5;"/><text fill="#000000" font-family="'Noto Sans CJK JP'" font-size="13" lengthAdjust="spacing" textLength="189.2542" x="222.3092" y="908.3207">&#26082;&#12395;&#26360;&#12365;&#36796;&#12414;&#12428;&#12383; 16 &#12456;&#12531;&#12488;&#12522;&#12399;</text><text fill="#000000" font-family="'Noto Sans CJK JP'" font-size="13" lengthAdjust="spacing" textLength="232.7003" x="222.3092" y="927.1447">&#33258;&#21205;&#12391;&#12399;&#28040;&#12360;&#12394;&#12356; (&#12510;&#12471;&#12531;&#27598;&#12395;&#19968;&#24230;&#12384;&#12369;)</text><rect fill="#F7F7F7" height="54.7522" rx="12.5" ry="12.5" style="stroke:#555555;stroke-width:0.5;" width="162.177" x="34.1321" y="884.6886"/><text fill="#000000" font-family="'Noto Sans CJK JP'" font-size="12" lengthAdjust="spacing" textLength="123.0729" x="44.1321" y="908.6087">mise &#12398; config.toml &#12434;</text><text fill="#000000" font-family="'Noto Sans CJK JP'" font-size="12" lengthAdjust="spacing" textLength="142.177" x="44.1321" y="925.9848">&#25163;&#12391; go / node &#12398;&#12415;&#12395;&#21066;&#12427;</text><ellipse cx="115.2206" cy="970.4408" fill="none" rx="11" ry="11" style="stroke:#222222;stroke-width:1;"/><ellipse cx="115.2206" cy="970.4408" fill="#222222" rx="6" ry="6" style="stroke:#222222;stroke-width:1;"/><line style="stroke:#181818;stroke-width:1;" x1="115.2206" x2="115.2206" y1="76.2719" y2="96.2719"/><polygon fill="#181818" points="111.2206,86.2719,115.2206,96.2719,119.2206,86.2719,115.2206,90.2719" style="stroke:#181818;stroke-width:1;"/><line style="stroke:#181818;stroke-width:1;" x1="115.2206" x2="115.2206" y1="133.648" y2="158.196"/><polygon fill="#181818" points="111.2206,148.196,115.2206,158.196,119.2206,148.196,115.2206,152.196" style="stroke:#181818;stroke-width:1;"/><line style="stroke:#181818;stroke-width:1;" x1="115.2206" x2="115.2206" y1="254.1201" y2="280.084"/><polygon fill="#181818" points="111.2206,270.084,115.2206,280.084,119.2206,270.084,115.2206,274.084" style="stroke:#181818;stroke-width:1;"/><line style="stroke:#181818;stroke-width:1;" x1="201.2281" x2="550.9405" y1="242.1201" y2="242.1201"/><polygon fill="#181818" points="546.9405,297.4601,550.9405,307.4601,554.9405,297.4601,550.9405,301.4601" style="stroke:#181818;stroke-width:1;"/><line style="stroke:#181818;stroke-width:1;" x1="550.9405" x2="550.9405" y1="242.1201" y2="366.8363"/><line style="stroke:#181818;stroke-width:1;" x1="550.9405" x2="127.2206" y1="366.8363" y2="366.8363"/><polygon fill="#181818" points="137.2206,362.8363,127.2206,366.8363,137.2206,370.8363,133.2206,366.8363" style="stroke:#181818;stroke-width:1;"/><line style="stroke:#181818;stroke-width:1;" x1="115.2206" x2="115.2206" y1="334.8363" y2="354.8363"/><polygon fill="#181818" points="111.2206,344.8363,115.2206,354.8363,119.2206,344.8363,115.2206,348.8363" style="stroke:#181818;stroke-width:1;"/><line style="stroke:#181818;stroke-width:1;" x1="115.2206" x2="115.2206" y1="195.5721" y2="230.1201"/><polygon fill="#181818" points="111.2206,220.1201,115.2206,230.1201,119.2206,220.1201,115.2206,224.1201" style="stroke:#181818;stroke-width:1;"/><line style="stroke:#181818;stroke-width:1;" x1="115.2206" x2="115.2206" y1="378.8363" y2="398.8363"/><polygon fill="#181818" points="111.2206,388.8363,115.2206,398.8363,119.2206,388.8363,115.2206,392.8363" style="stroke:#181818;stroke-width:1;"/><line style="stroke:#181818;stroke-width:1;" x1="115.2206" x2="115.2206" y1="436.2124" y2="460.7604"/><polygon fill="#181818" points="111.2206,450.7604,115.2206,460.7604,119.2206,450.7604,115.2206,454.7604" style="stroke:#181818;stroke-width:1;"/><line style="stroke:#181818;stroke-width:1;" x1="115.2206" x2="115.2206" y1="749.8766" y2="776.6886"/><polygon fill="#181818" points="111.2206,766.6886,115.2206,776.6886,119.2206,766.6886,115.2206,770.6886" style="stroke:#181818;stroke-width:1;"/><line style="stroke:#181818;stroke-width:1;" x1="115.2206" x2="115.2206" y1="681.4006" y2="712.5005"/><polygon fill="#181818" points="111.2206,702.5005,115.2206,712.5005,119.2206,702.5005,115.2206,706.5005" style="stroke:#181818;stroke-width:1;"/><line style="stroke:#181818;stroke-width:1;" x1="162.8274" x2="515.3694" y1="669.4006" y2="669.4006"/><polygon fill="#181818" points="511.3694,746.6886,515.3694,756.6886,519.3694,746.6886,515.3694,750.6886" style="stroke:#181818;stroke-width:1;"/><line style="stroke:#181818;stroke-width:1;" x1="515.3694" x2="515.3694" y1="669.4006" y2="820.6886"/><line style="stroke:#181818;stroke-width:1;" x1="515.3694" x2="115.2206" y1="820.6886" y2="820.6886"/><line style="stroke:#181818;stroke-width:1;" x1="115.2206" x2="115.2206" y1="820.6886" y2="840.6886"/><polygon fill="#181818" points="111.2206,830.6886,115.2206,840.6886,119.2206,830.6886,115.2206,834.6886" style="stroke:#181818;stroke-width:1;"/><line style="stroke:#181818;stroke-width:1;" x1="115.2206" x2="115.2206" y1="637.4006" y2="657.4006"/><polygon fill="#181818" points="111.2206,647.4006,115.2206,657.4006,119.2206,647.4006,115.2206,651.4006" style="stroke:#181818;stroke-width:1;"/><line style="stroke:#181818;stroke-width:1;" x1="115.2206" x2="115.2206" y1="556.6844" y2="582.6484"/><polygon fill="#181818" points="111.2206,572.6484,115.2206,582.6484,119.2206,572.6484,115.2206,576.6484" style="stroke:#181818;stroke-width:1;"/><line style="stroke:#181818;stroke-width:1;" x1="162.8274" x2="537.3694" y1="544.6844" y2="544.6844"/><polygon fill="#181818" points="533.3694,695.8125,537.3694,705.8125,541.3694,695.8125,537.3694,699.8125" style="stroke:#181818;stroke-width:1;"/><line style="stroke:#181818;stroke-width:1;" x1="537.3694" x2="537.3694" y1="544.6844" y2="852.6886"/><line style="stroke:#181818;stroke-width:1;" x1="537.3694" x2="127.2206" y1="852.6886" y2="852.6886"/><polygon fill="#181818" points="137.2206,848.6886,127.2206,852.6886,137.2206,856.6886,133.2206,852.6886" style="stroke:#181818;stroke-width:1;"/><line style="stroke:#181818;stroke-width:1;" x1="115.2206" x2="115.2206" y1="498.1365" y2="532.6844"/><polygon fill="#181818" points="111.2206,522.6844,115.2206,532.6844,119.2206,522.6844,115.2206,526.6844" style="stroke:#181818;stroke-width:1;"/><line style="stroke:#181818;stroke-width:1;" x1="115.2206" x2="115.2206" y1="864.6886" y2="884.6886"/><polygon fill="#181818" points="111.2206,874.6886,115.2206,884.6886,119.2206,874.6886,115.2206,878.6886" style="stroke:#181818;stroke-width:1;"/><line style="stroke:#181818;stroke-width:1;" x1="115.2206" x2="115.2206" y1="939.4408" y2="959.4408"/><polygon fill="#181818" points="111.2206,949.4408,115.2206,959.4408,119.2206,949.4408,115.2206,953.4408" style="stroke:#181818;stroke-width:1;"/><?plantuml-src dLJVRnj547xtNp5Aa19RyZaLeg3a0Thy42eGAlBQbxDlRI-vsxFkrgGH8FdEIUiqBXMLaX1IS5kYsZYA8uH2J6cR_uNDNUp_WjdrnLnDyiBPidmxCpipt_VDJ42uypmu_45KVnR-YQZ-Blp7i4ZlmlbnlNTo9BnkKBil_0VXtgdmQiBV33Ss-q_l9TnboagwerkGrNFB1SSkCsFMDcq7nXVK4_CmI5ulctp1PdnHjmYCBThSXYMTkJ1xwnEuTNiivkmMTSDUeQm0UTrqISoYvpZzYl9L-3e1SFC_MT-N7scn7OCuqUbxwi7JEQfRDZDkNbBi1tEpCOTuz0tr9BvD93Zb9lcVK2LShZiyaPYMlXWZ_7qL_AUeraJrbQWU26yNtMSIpEO475eeSYmeLtPCIEVTfK-Xo7d9dSvaACEhJ5Cp22UEHPdEYUQkkfnOReRXvTyWUf1s8Ps6o3L1c07oMaoVIfsztX9UlR_-yFnrHtXRmgzZMk5j1kiruHsSFt_PQpySr99AnQk1yVcfXONvAQnAficMgMd0X3PUj2qoQxCyBPGTdLERkTfOoJPDmhuiVRJYccEQuaoPRYFoUe5CGDg63BTAcQA5r-KfrXUzPkHrwJmrYOkMl-yzXdS-_lopUS3IpheLnBRNV25Bzdx44r4PxIDORuag_d-cy4K7RANUQnyAtqDh30YQXqbBfqpBwWYNItYv96a9EetUithOHIXEFqm2Bn86ay93NjUIMCzqoI5vKwAHBZEJicKDWuTXmjkvmo9vU1rmLotfekpxsmZfZ8GkXkTGTW3A0NbfOoBXjTGPTZT_bxfSZG420fgcmOfTHjYp17AcdSqIXnYgn-PPzp3SFXpmXj73HWcEZ-nWJNrhIGa1pQCG5CwMpf0E1zmLodEechJXhAQTCfkvoY6BaxxyjYg6NGoCoDJHnOZ4YC0fqGRMRhzIwNkdmr9JgSXGnp0aDNZIKe9i1Vk_XLix5r94HB5Dz1VLjfgPN_7cSDV7TC6ZVUmkkX_1La8E_y3VtH76Wwr7VSbJlNTy8Zp4hN4PoMzrNY2CHBh66fjts23RMNVxxAzV9CsHkic_Ef0yosp2-qb9jIbylzzSEz_hN99jD5-PHLCxeunNw0KWV58vF_PnkuITO-4z5HuMqm0jCohgoN2dETXDIKbD57rZxWkOklOkJ2vnp0hNfQqPR3pexs9pY7b3-Gt1aoykjqjIMQE2KcuegIkLPb4qIAHoQajetBPC2HREoWRot8G2BWFCOoWl8QLnWAMCBCDO-mETX7jTfB3tvfNmtYYO6t3jEjxRadjL2gGzQBTtlnriRaaMK9XI5BN1c66j5piyFFeksYylNoWilq_6XACQ_mS0?></g></svg>